<?xml version="1.0" standalone="no"?><!DOCTYPE svg PUBLIC "-//W3C//DTD SVG 1.1//EN" "http://www.w3.org/Graphics/SVG/1.1/DTD/svg11.dtd"><svg width="100%" height="100%" viewBox="0 0 31 31" version="1.1" xmlns="http://www.w3.org/2000/svg" xmlns:xlink="http://www.w3.org/1999/xlink" xml:space="preserve" style="fill-rule:evenodd;clip-rule:evenodd;stroke-linecap:round;stroke-linejoin:round;stroke-miterlimit:1.41421;"><g id="date"><circle cx="15.527" cy="15.528" r="13.272" style="fill:none;stroke-width:1.5px;stroke:#00b7c0;"/><path d="M15.673,6.472c0,-0.378 -0.308,-0.686 -0.686,-0.686c-0.379,0 -0.687,0.308 -0.687,0.686l0,9.452c0,0.379 0.308,0.686 0.687,0.686c0.378,0 0.686,-0.307 0.686,-0.686l0,-9.452Z" style="fill:#00b7c0;"/><path d="M19.575,20.772c0.333,0.262 0.816,0.205 1.078,-0.128c0.262,-0.333 0.204,-0.816 -0.129,-1.078l-4.981,-3.92c-0.333,-0.262 -0.816,-0.204 -1.078,0.129c-0.262,0.333 -0.205,0.815 0.128,1.077l4.982,3.92Z" style="fill:#00b7c0;"/></g></svg>