<?xml version="1.0" standalone="no"?><!DOCTYPE svg PUBLIC "-//W3C//DTD SVG 1.1//EN" "http://www.w3.org/Graphics/SVG/1.1/DTD/svg11.dtd"><svg width="100%" height="100%" viewBox="0 0 26 29" version="1.1" xmlns="http://www.w3.org/2000/svg" xmlns:xlink="http://www.w3.org/1999/xlink" xml:space="preserve" style="fill-rule:evenodd;clip-rule:evenodd;stroke-linejoin:round;stroke-miterlimit:1.41421;"><path id="logo_icon" d="M8.347,21.533c0.04,0.051 0.081,0.1 0.123,0.148c0.96,1.093 2.547,1.64 4.762,1.64c2.144,0 3.7,-0.55 4.666,-1.65c0.966,-1.101 1.45,-2.827 1.45,-5.18c0,0 0,-8.402 0,-13.205c0,-0.867 0.344,-1.699 0.957,-2.312c0.613,-0.613 1.445,-0.957 2.312,-0.957c0,0 0,0 0.001,0c0.867,0 1.698,0.344 2.311,0.957c0.613,0.613 0.958,1.445 0.958,2.312c0,5.083 0,14.305 0,14.305c0,2.242 -0.512,4.208 -1.534,5.896c-1.023,1.689 -2.501,2.983 -4.434,3.882c-1.933,0.9 -4.218,1.35 -6.857,1.35c-3.862,0 -6.887,-0.943 -9.074,-2.828l4.359,-4.358ZM2.351,24.084c-1.239,-1.777 -1.859,-3.969 -1.859,-6.576c0,0 0,-9.16 0,-14.222c0,-0.867 0.344,-1.699 0.957,-2.312c0.614,-0.613 1.445,-0.957 2.312,-0.957c0,0 0.001,0 0.001,0c0.867,0 1.699,0.344 2.312,0.957c0.613,0.613 0.957,1.445 0.957,2.312c0,4.814 0,13.246 0,13.246c0,0.983 0.085,1.855 0.254,2.618l-4.934,4.934Z" style="fill:#9e9e9e;"/></svg>