<?xml version="1.0" standalone="no"?><!DOCTYPE svg PUBLIC "-//W3C//DTD SVG 1.1//EN" "http://www.w3.org/Graphics/SVG/1.1/DTD/svg11.dtd"><svg width="100%" height="100%" viewBox="0 0 76 86" version="1.1" xmlns="http://www.w3.org/2000/svg" xmlns:xlink="http://www.w3.org/1999/xlink" xml:space="preserve" style="fill-rule:evenodd;clip-rule:evenodd;stroke-linejoin:round;stroke-miterlimit:1.41421;"><path id="logo" d="M23.5,64.252c0.12,0.15 0.243,0.297 0.369,0.441c2.865,3.265 7.604,4.897 14.218,4.897c6.403,0 11.047,-1.643 13.933,-4.928c2.885,-3.286 4.328,-8.441 4.328,-15.467c0,0 0,-25.086 0,-39.429c0,-2.588 1.029,-5.071 2.859,-6.902c1.831,-1.83 4.313,-2.859 6.902,-2.859c0.001,0 0.002,0 0.003,0c2.589,0 5.072,1.029 6.903,2.859c1.83,1.831 2.859,4.314 2.859,6.902c0,15.179 0,42.715 0,42.715c0,6.695 -1.528,12.563 -4.582,17.605c-3.054,5.042 -7.467,8.906 -13.238,11.592c-5.771,2.686 -12.595,4.03 -20.473,4.03c-11.533,0 -20.564,-2.815 -27.094,-8.443l13.013,-13.013ZM5.598,71.867c-3.701,-5.306 -5.551,-11.85 -5.551,-19.634c0,0 0,-27.35 0,-42.467c0,-2.588 1.028,-5.071 2.859,-6.902c1.83,-1.83 4.313,-2.859 6.902,-2.859c0.001,0 0.002,0 0.003,0c2.589,0 5.072,1.029 6.902,2.859c1.831,1.831 2.859,4.314 2.859,6.902c0,14.375 0,39.553 0,39.553c0,2.933 0.253,5.538 0.758,7.816l-14.732,14.732Z" style="fill:#fff;"/></svg>